<svg version="1" xmlns="http://www.w3.org/2000/svg" width="853.333" height="853.333" viewBox="0 0 640.000000 640.000000"><path d="M333.3 109c-35.9 35.7-65.3 65.2-65.3 65.5 0 .3 1.5 1.4 3.3 2.5 6.1 3.7 3.6 2.8-17.2-6.7-5.7-2.5-19.3-7.3-20.9-7.3-.5 0 .1 2.1 1.4 4.7 4.8 9.5 10.3 21.9 11 24.7.6 2.7-.9 4.4-27.5 31l-28.2 28.2 3.2 2.7c1.8 1.5 2.9 2.7 2.4 2.7s-1.6-.6-2.4-1.4c-.9-.7-3.8-2.6-6.5-4.1l-4.8-2.8.6 5 .6 5.1-68.6 67.8c-63.2 62.5-68.4 67.9-66.7 69.2 1.7 1.3 1.7 1.4-.4.7l-2.3-.6V603h557.9l.1-81.3c0-44.6-.3-170.4-.6-279.5L601.7 44H500.1l-101.6.1-65.2 64.9zM470 139c0 .5-.7 1-1.6 1-.8 0-1.2-.5-.9-1 .3-.6 1-1 1.6-1 .5 0 .9.4.9 1zm7.6 2.7c-.7.7-5.6-1.7-5.6-2.7 0-.7 1.3-.4 3 .6 1.6 1 2.8 1.9 2.6 2.1zm-11.6-1.8c0 .5-.7 1.1-1.4 1.4-1 .4-1.3.1-.9-.9.6-1.5 2.3-1.9 2.3-.5zM332 142c1.2.8 1.1 1-.7 1-1.2 0-2.5-.5-2.8-1-.8-1.3 1.5-1.3 3.5 0zm123 .6c0 .3-.7 1.2-1.5 2.1-2 1.9-3.2.9-1.5-1.2 1.2-1.5 3-2 3-.9zm4 .4c-.8.5-1.9 1-2.5 1-.5 0-.3-.5.5-1s2-1 2.5-1c.6 0 .3.5-.5 1zm-118 2c0 .5-.4 1-1 1-.5 0-1-.5-1-1 0-.6.5-1 1-1 .6 0 1 .4 1 1zm-8.5 4.9c-.8.8-3.5-2.2-3.5-3.8 0-1.2.5-1 2 .9 1 1.4 1.7 2.7 1.5 2.9zM490 146c0 .5-.4 1-1 1-.5 0-1-.5-1-1 0-.6.5-1 1-1 .6 0 1 .4 1 1zm-138.1 1.6c.2.2.2.6-.1.9-.8.9-5.8-.6-5.8-1.6 0-.8 4.8-.2 5.9.7zm143.1.5c0 .4-.7.6-1.5.3-.8-.4-1.5-1-1.5-1.5 0-.4.7-.6 1.5-.3.8.4 1.5 1 1.5 1.5zm-139.4 2.6c-.7.7-2.6-.7-2.6-1.9 0-.6.6-.6 1.5.2.9.7 1.3 1.5 1.1 1.7zm144.6-.9c1.7 1.7-.4 1.5-2.8-.2-1.7-1.3-1.7-1.4-.1-1.2.9.1 2.3.8 2.9 1.4zm-164.9 3.3c2.6 3 1.5 3.4-1.3.4-1.3-1.4-1.9-2.5-1.4-2.5s1.8.9 2.7 2.1zm120.7.4c1.3 1.4 1.9 2.5 1.3 2.5-.5 0-2-1.1-3.3-2.5-1.3-1.4-1.9-2.5-1.3-2.5.5 0 2 1.1 3.3 2.5zm49.6-1c1 .8 1.5 1.4.9 1.4-.5 0-1.9-.6-2.9-1.4-1.1-.8-1.5-1.5-1-1.5.6 0 1.9.7 3 1.5zm-139.1 2.7c1.9 1.3 3.5 2.6 3.5 3 0 1.3-.8.9-5.2-2.2-4.8-3.5-3.4-4.1 1.7-.8zm147.9 1.3c1.1.8 1.7 1.7 1.4 2-.3.3-1.6-.3-2.9-1.4-2.7-2.3-1.4-2.8 1.5-.6zM460 160c0 .5-.4 1-1 1-.5 0-1-.5-1-1 0-.6.5-1 1-1 .6 0 1 .4 1 1zm59.5 0c.3.5.2 1-.4 1-.5 0-1.3-.5-1.6-1-.3-.6-.2-1 .4-1 .5 0 1.3.4 1.6 1zm-61.7 5.1c-.6 1.6-1.2 2.9-1.3 2.7-.6-.6.8-5.8 1.6-5.8.4 0 .3 1.4-.3 3.1zM522 163c0 .5-.2 1-.4 1-.3 0-.8-.5-1.1-1-.3-.6-.1-1 .4-1 .6 0 1.1.4 1.1 1zm-185 3.5c0 1.9-.4 3.5-1 3.5-.5 0-1-1.6-1-3.5s.5-3.5 1-3.5c.6 0 1 1.6 1 3.5zm43.2 3c.6 1.2-.1.8-1.6-.9-1.4-1.6-2.6-3.4-2.6-4 .1-1.2 2.6 1.7 4.2 4.9zM523 172c0 2.2-.4 4-.8 4s-.8-1.8-.9-4c-.1-2.2.2-4 .8-4 .5 0 .9 1.8.9 4zm-66.7-1.5c-.3.9-.8 1.4-1 1.1-.3-.3-.2-.9.2-1.5.9-1.6 1.5-1.3.8.4zm-73.3 3.1c0 .8-.4 1.2-1 .9-.5-.3-1-1-1-1.6 0-.5.5-.9 1-.9.6 0 1 .7 1 1.6zm-45.5.3c.3.5.1 1.2-.5 1.6-.5.3-1-.1-1-.9 0-1.8.6-2.1 1.5-.7zm.9 5.7c.8 2.1.8 2.4-.3 2.4-.5 0-1.1-.9-1.4-2-.6-2.4.8-2.7 1.7-.4zm46.6 1.2c0 1.5-.2 1.5-1 .2-1.3-2-1.3-3.3 0-2.5.6.3 1 1.4 1 2.3zm67.1-1c-.5.9-2 2.6-3.2 3.7-1.7 1.4-2 1.5-1 .3.7-.9.9-2.3.5-2.9-.4-.7-.3-.9.3-.6.6.4 1.3 0 1.7-.8.3-.8 1-1.5 1.6-1.5.7 0 .8.6.1 1.8zm-172.3 1.6c2 1.2 3.9 2.3 4.2 2.2.8-.1 6 4.7 6 5.6 0 .4-2.6-1.1-5.9-3.5-3.2-2.3-6.7-4.7-7.7-5.4-1.1-.6-1.6-1.2-1.1-1.2.4-.1 2.4 1 4.5 2.3zm235.7-.4c.4.6-.5 1-2 1s-3.5.5-4.7 1.1c-1.1.6-2.3.8-2.6.4-.3-.3.4-.8 1.6-1.2 1.2-.3 2.2-.9 2.2-1.4 0-1.2 4.7-1.1 5.5.1zM340 184c0 .5-.4 1-1 1-.5 0-1-.5-1-1 0-.6.5-1 1-1 .6 0 1 .4 1 1zm45.7 1.2c-.3.8-.6.5-.6-.6-.1-1.1.2-1.7.5-1.3.3.3.4 1.2.1 1.9zm118.8-.2c-.3.5-1.3 1-2.1 1s-1.2-.5-.9-1c.3-.6 1.3-1 2.1-1s1.2.4.9 1zm-163.1 2.6c.9 2.2.7 4.4-.2 4.4-.5 0-.9-.6-.9-1.3 0-.6-.4-2-.8-3-.4-.9-.3-1.7.3-1.7.5 0 1.3.7 1.6 1.6zm157.3 1.1c-.9.9-2 1.3-2.4.9-.4-.4-.1-1.1.7-1.6 2.5-1.6 3.5-1.1 1.7.7zm-111.2 4.4c-.4 6-1.5 6-1.5 0 0-2.9.4-5 .9-4.7.5.4.8 2.4.6 4.7zm58-4.1c-.3.5-1.1 1-1.6 1-.6 0-.7-.5-.4-1 .3-.6 1.1-1 1.6-1 .6 0 .7.4.4 1zm-152.2 4c.3 1.1.1 2-.4 2s-.9-.2-.9-.4-.3-1.1-.6-2c-.3-.9-.2-1.6.4-1.6.5 0 1.2.9 1.5 2zm149.7-.6c0 .8-.7 1.6-1.5 2-1.3.4-1.4.2-.5-1.4 1.3-2.3 2-2.6 2-.6zm51.5-.4c-.3.5-1.1 1-1.6 1-.6 0-.7-.5-.4-1 .3-.6 1.1-1 1.6-1 .6 0 .7.4.4 1zM343 194c0 .5-.2 1-.4 1-.3 0-.8-.5-1.1-1-.3-.6-.1-1 .4-1 .6 0 1.1.4 1.1 1zm146.2 2.2c-.7.7-1.2.8-1.2.2 0-.6.3-1.4.7-1.7.3-.4.9-.5 1.2-.2.2.3-.1 1.1-.7 1.7zm-193.9 2c.6 2.1.2 3.6-.7 2.7-1-1.1-1.6-4.9-.8-4.9.5 0 1.2 1 1.5 2.2zm51.2 4.7c.4 1.5.3 2.1-.3 1.7-.5-.3-1.2-1.6-1.5-2.8-.2-1.3-.8-3.2-1.1-4.3-.5-1.2-.2-1 .7.5.8 1.4 1.8 3.6 2.2 4.9zm91.3-4.7c-.8 1.2-2.5 2.8-3.9 3.7-1.8 1.1-1.6.6 1-2.2 3.9-4.2 5-4.8 2.9-1.5zM247 199c0 .5-.4 1-1 1-.5 0-1-.5-1-1 0-.6.5-1 1-1 .6 0 1 .4 1 1zm138.7 2.2c-.3.8-.6.5-.6-.6-.1-1.1.2-1.7.5-1.3.3.3.4 1.2.1 1.9zm96.6 1.3c-1.7 2.3-3.3 3.2-3.3 1.8 0-1 3.2-4.3 4.2-4.3.5 0 .1 1.1-.9 2.5zM297 205.9c0 1.1-.4 2.3-1 2.6-.6.4-1-.5-1-1.9s.5-2.6 1-2.6c.6 0 1 .9 1 1.9zm52 3.3c.7 1.8 1.3 3.4 1.2 3.5 0 .2.6 1.9 1.4 3.9.8 2 1.3 3.9 1 4.2-.3.2-.8-.4-1.2-1.4-.3-1-1.1-3-1.6-4.4-.6-1.4-1.3-3.1-1.4-3.9-.1-.7-.7-1.8-1.3-2.4-1.3-1.3-1.4-2.7-.3-2.7.4 0 1.4 1.5 2.2 3.2zm35.3-.2c-.7 2.8-1.3 2.5-1.3-.6 0-1.4.4-2.3.9-2 .5.3.7 1.5.4 2.6zm44.7-2c0 .5-.9 1.4-2 2-2.2 1.2-2.7.1-.8-1.8 1.4-1.4 2.8-1.6 2.8-.2zm46 1.3c0 .2-.9 1.2-2 2.2-2.4 2.1-2.7 1.4-.4-.9 1.5-1.5 2.4-2 2.4-1.3zm-179.4 4.4c-1 1-1.9-.5-1-1.8.6-1.1.8-1.1 1.2 0 .2.7.1 1.5-.2 1.8zm127.4-.8c0 .5-.7 1.1-1.4 1.4-1 .4-1.3.1-.9-.9.6-1.5 2.3-1.9 2.3-.5zm-128.4 4.8c-1 1-1.9-.5-1-1.8.6-1.1.8-1.1 1.2 0 .2.7.1 1.5-.2 1.8zm-43.3.3c.3 1.1.1 2-.4 2s-.9-.2-.9-.4-.3-1.1-.6-2c-.3-.9-.2-1.6.4-1.6.5 0 1.2.9 1.5 2zm131.3-.4c-.3.9-.6 1.8-.6 2 0 .2-.4.4-.9.4s-.7-.9-.4-2c.3-1.1 1-2 1.5-2 .6 0 .7.7.4 1.6zm35.9-.6c-.3.5-1 1-1.6 1-.5 0-.9-.5-.9-1 0-.6.7-1 1.6-1 .8 0 1.2.4.9 1zm47.5 1c0 .5-.9 1.4-2.1 2-1.9 1.1-2 1-.9-.9 1.1-2.2 3-2.9 3-1.1zm-52 2c0 .5-.5 1-1.1 1-.5 0-.7-.5-.4-1 .3-.6.8-1 1.1-1 .2 0 .4.4.4 1zm-119 .4c0 1.1-1.9 1.5-2.5.6-.3-.5.1-1 .9-1 .9 0 1.6.2 1.6.4zm233 .6c0 .5-.9 1-2 1s-2-.5-2-1c0-.6.9-1 2-1s2 .4 2 1zm-274.6 1.6c1.7 1.7 2.1 3.4.8 3.4-.5 0-1.4-1.1-2-2.5-1.3-2.9-1-3.1 1.2-.9zm106.2 1.1c1.2.8 3.5 1.5 5.2 1.6 3 .2 3.5 1.7.5 1.7-2 0-11.3-4.3-11.3-5.2 0-.9 2.7 0 5.6 1.9zm157.5-1.6c-1.6.6-2.8.6-3.5-.1-.7-.7.1-1 2.5-.9 3.2 0 3.3.1 1 1zM409 223.5c-2.5 2.6-4 3.2-4 1.5 0-.6.5-1 1.1-1 .6 0 1.7-.7 2.5-1.5 2.6-2.5 2.9-1.7.4 1zm55.5-.5c-.3.5-1.3.6-2.1.3-1.2-.4-1.3-.8-.3-1.4 1.5-.9 3.2-.2 2.4 1.1zm42.3-1.3c-1 .2-2.6.2-3.5 0-1-.3-.2-.5 1.7-.5s2.7.2 1.8.5zm-134.2 1.8c-1.1.8-2.2 1.2-2.5.9-.6-.6 1.9-2.4 3.4-2.4.6.1.1.7-.9 1.5zm122.5-.4c-1.6.6-2.8.6-3.5-.1-.7-.7.1-1 2.5-.9 3.2 0 3.3.1 1 1zm43 .6c3.1 1.8 4.1 4.1 1.2 2.4-2.9-1.5-5.9-4-5-4.1.5 0 2.2.8 3.8 1.7zm-68.1.3c0 .5-.7.7-1.5.4-.8-.4-1.5-.8-1.5-1 0-.2.7-.4 1.5-.4s1.5.4 1.5 1zm14 0c-1.9 1.3-3 1.3-3 0 0-.6 1-1 2.3-1 1.8 0 1.9.2.7 1zm-189 2.1c0 .5-.7.9-1.5.9-1.5 0-2-1.2-.9-2.3.8-.8 2.4.1 2.4 1.4zm-38.5.9c.3.5.1 1-.4 1-.6 0-1.1-.5-1.1-1 0-.6.2-1 .4-1 .3 0 .8.4 1.1 1zm146.5.8c0 .5-1.1 1.4-2.5 2-1.4.6-2.5.8-2.5.4 0-.6.9-1.2 4.8-3.1.1 0 .2.3.2.7zm146.5 3.6c2 1.8 1.9 1.8-1 .3-1.6-.9-3.9-2.3-5-3.1-1.9-1.5-1.8-1.6 1-.4 1.7.7 3.9 2.1 5 3.2zm-288.4 2.8c.5 1 .6 1.8.1 1.8-.4 0-1.6-1.7-2.5-3.8-1.5-3.1-1.5-3.4-.1-1.7.8 1.1 2 2.8 2.5 3.7zm33.9-3.7c0 .8-.4 1.5-1 1.5-.5 0-1-.7-1-1.5s.5-1.5 1-1.5c.6 0 1 .7 1 1.5zm95 1.5c0 .5-.5 1-1.1 1-.5 0-.7-.5-.4-1 .3-.6.8-1 1.1-1 .2 0 .4.4.4 1zm3.7-.4c-.3.3-1.2.4-1.9.1-.8-.3-.5-.6.6-.6 1.1-.1 1.7.2 1.3.5zM387 233c0 .5-.4 1-1 1-.5 0-1-.5-1-1 0-.6.5-1 1-1 .6 0 1 .4 1 1zm-8.9 2.3c-1.3 1.3-2.6.3-1.6-1.2.3-.6 1.1-.8 1.7-.5.6.4.6 1-.1 1.7zm4.9-1.3c0 .5-.4 1-1 1-.5 0-1-.5-1-1 0-.6.5-1 1-1 .6 0 1 .4 1 1zm171 0c0 .5-.4 1-1 1-.5 0-1-.5-1-1 0-.6.5-1 1-1 .6 0 1 .4 1 1zm-182 1c0 .5-.9 1-2.1 1-1.1 0-1.7-.5-1.4-1 .3-.6 1.3-1 2.1-1s1.4.4 1.4 1zm-13.8 1.5c0 .5-.5 1.1-1.1 1.3-.6.2-1.1-.4-1.1-1.3s.5-1.5 1.1-1.3c.6.2 1.1.8 1.1 1.3zm6.8-.5c0 .5-.7 1-1.5 1s-1.5-.5-1.5-1c0-.6.7-1 1.5-1s1.5.4 1.5 1zm192 0c0 .5-.2 1-.4 1-.3 0-.8-.5-1.1-1-.3-.6-.1-1 .4-1 .6 0 1.1.4 1.1 1zm-203.5 1c.3.5-.1 1-1 1s-1.3-.5-1-1c.3-.6.8-1 1-1 .2 0 .7.4 1 1zm-89.5 1c0 .5-.2 1-.4 1-.3 0-.8-.5-1.1-1-.3-.6-.1-1 .4-1 .6 0 1.1.4 1.1 1zm27 .9c0 .6-.4 1.3-1 1.6-.5.3-1-.1-1-.9 0-.9.5-1.6 1-1.6.6 0 1 .4 1 .9zm54 .1c0 .5-.5 1-1.1 1-.5 0-.7-.5-.4-1 .3-.6.8-1 1.1-1 .2 0 .4.4.4 1zm4.7-.4c-.3.3-1.2.4-1.9.1-.8-.3-.5-.6.6-.6 1.1-.1 1.7.2 1.3.5zM342 240c0 .5-.2 1-.4 1-.3 0-.8-.5-1.1-1-.3-.6-.1-1 .4-1 .6 0 1.1.4 1.1 1zm223.4.5c1.1.8 1.8 1.7 1.5 1.9-.2.3-1.5-.4-2.9-1.4-1.4-1.1-2-2-1.5-1.9.6 0 1.9.6 2.9 1.4zM266 241c0 .5-.2 1-.4 1-.3 0-.8-.5-1.1-1-.3-.6-.1-1 .4-1 .6 0 1.1.4 1.1 1zm70-.6c0 .3-.4.8-1 1.1-.5.3-1 .1-1-.4 0-.6.5-1.1 1-1.1.6 0 1 .2 1 .4zm-50 1.6c0 .5-.4 1-1 1-.5 0-1-.5-1-1 0-.6.5-1 1-1 .6 0 1 .4 1 1zm47 0c0 .5-.4 1-1 1-.5 0-1-.5-1-1 0-.6.5-1 1-1 .6 0 1 .4 1 1zm-50 1c0 .5-.5 1-1.1 1-.5 0-.7-.5-.4-1 .3-.6.8-1 1.1-1 .2 0 .4.4.4 1zm47 0c0 .5-.4 1-1 1-.5 0-1-.5-1-1 0-.6.5-1 1-1 .6 0 1 .4 1 1zm164.5 0c.4.6-1.2 1-4 1s-4.4-.4-4-1c.3-.6 2.1-1 4-1s3.7.4 4 1zM280 244.2c0 .5-2.5.8-5.5.8s-5.5-.3-5.5-.8c0-.4 2.5-.7 5.5-.7s5.5.3 5.5.7zm47-.4c0 .5-.6.9-1.2.9-.7 0-2.5.4-4 .8-1.9.5-2.8.3-2.8-.5 0-.6.3-.9.8-.7.4.3 1.6.1 2.7-.4 2.7-1 4.5-1.1 4.5-.1zm154 .2c0 .5-1 1-2.2 1-1.9 0-2-.2-.8-1 1.9-1.3 3-1.3 3 0zm18.5 0c.3.5-.1 1-.9 1-.9 0-1.6-.5-1.6-1 0-.6.4-1 .9-1 .6 0 1.3.4 1.6 1zm72.5 1.1l2.5 2-3.2-1.6c-1.8-.8-3.3-1.8-3.3-2 0-1 1.6-.4 4 1.6zm-98-.3c0 1.3-1.2 2.2-2.2 1.6-1-.6-.1-2.4 1.3-2.4.5 0 .9.4.9.8zm31 .2c0 .5-.4 1-.9 1-.6 0-1.3-.5-1.6-1-.3-.6.1-1 .9-1 .9 0 1.6.4 1.6 1zm-41 1c0 .5-.7 1-1.6 1-.8 0-1.2-.5-.9-1 .3-.6 1-1 1.6-1 .5 0 .9.4.9 1zm4.7-.4c-.3.3-1.2.4-1.9.1-.8-.3-.5-.6.6-.6 1.1-.1 1.7.2 1.3.5zm-150.7.8c0 .2-2 1.1-4.5 1.9-2.5.9-4.5 1.2-4.5.8 0-.4 1.7-1.2 3.8-1.8 4.6-1.3 5.2-1.4 5.2-.9zm141 0c0 1.1-1.9 1.5-2.5.6-.3-.5.1-1 .9-1 .9 0 1.6.2 1.6.4zm52.5 3.4c-.6.7-3.5-1.8-3.5-3.1 0-.5.9-.2 2 .8s1.8 2 1.5 2.3zM454 248c0 .5-.7 1-1.5 1s-1.5-.5-1.5-1c0-.6.7-1 1.5-1s1.5.4 1.5 1zm-9 .8c0 1.3-1.2 2.2-2.2 1.6-1-.6-.1-2.4 1.3-2.4.5 0 .9.4.9.8zm4.5.2c-.3.5-1 1-1.6 1-.5 0-.9-.5-.9-1 0-.6.7-1 1.6-1 .8 0 1.2.4.9 1zm132.5 2.2c0 .4-.4.8-1 .8-.5 0-1-.5-1-1 0-.6-.7-1-1.5-1s-1.5-.4-1.5-1 1-.5 2.5.2c1.4.6 2.5 1.5 2.5 2zm-274-1.4c0 .5-.7.9-1.5.9s-1.5-.4-1.5-.9c0-.4.7-.8 1.5-.8s1.5.4 1.5.8zm133 .2c0 .5-.7 1-1.5 1s-1.5-.5-1.5-1c0-.6.7-1 1.5-1s1.5.4 1.5 1zm-138.4 1.5c-1.1.8-2.2 1.2-2.5.9-.6-.6 1.9-2.4 3.4-2.4.6.1.1.7-.9 1.5zm129.9-.5c.3.5-.1 1-1 1s-1.3-.5-1-1c.3-.6.8-1 1-1 .2 0 .7.4 1 1zm4 0c-.3.5-1 1-1.6 1-.5 0-.9-.5-.9-1 0-.6.7-1 1.6-1 .8 0 1.2.4.9 1zm-8.5 1c0 .5-.5 1-1.1 1-.5 0-.7-.5-.4-1 .3-.6.8-1 1.1-1 .2 0 .4.4.4 1zm86 0c0 .5-.4 1-1 1-.5 0-1-.5-1-1 0-.6.5-1 1-1 .6 0 1 .4 1 1zm-218 1c0 .5-.4 1-1 1-.5 0-1-.5-1-1 0-.6.5-1 1-1 .6 0 1 .4 1 1zm127.5 0c.3.5.1 1-.4 1-.6 0-1.1-.5-1.1-1 0-.6.2-1 .4-1 .3 0 .8.4 1.1 1zm162.5.5c.7.8.8 1.5.2 1.5-.5 0-1.5-.7-2.2-1.5-.7-.8-.8-1.5-.2-1.5.5 0 1.5.7 2.2 1.5zm-293 .5c0 .5-.4 1-1 1-.5 0-1-.5-1-1 0-.6.5-1 1-1 .6 0 1 .4 1 1zm127 0c0 .5-.4 1-1 1-.5 0-1-.5-1-1 0-.6.5-1 1-1 .6 0 1 .4 1 1zm-3.3.6c-.3.3-1.2.4-1.9.1-.8-.3-.5-.6.6-.6 1.1-.1 1.7.2 1.3.5zm93.1 5.7c-1.8 3.1-4 5.6-4.8 5.6-1.1 0-1.1-.2-.2-.6.7-.3 2.2-2.4 3.3-4.6 2.4-4.6 4-6.9 4.6-6.4.2.2-1.1 2.9-2.9 6zM289 255.4c0 .2-1.3.9-3 1.5-1.6.5-3 .6-3 .1 0-.7 1-1.1 5.3-1.9.4 0 .7.1.7.3zm119.5.6c-.3.5-1.1 1-1.6 1-.6 0-.7-.5-.4-1 .3-.6 1.1-1 1.6-1 .6 0 .7.4.4 1zm3.5 0c0 .5-.2 1-.4 1-.3 0-.8-.5-1.1-1-.3-.6-.1-1 .4-1 .6 0 1.1.4 1.1 1zm-8 1c0 .5-.2 1-.4 1-.3 0-.8-.5-1.1-1-.3-.6-.1-1 .4-1 .6 0 1.1.4 1.1 1zm-122 1.1c0 .5-.4.8-.9.5-.5-.4-1.1-.2-1.3.3-.4 1.3-5.8 2.6-5.8 1.4 0-.5 1.5-1.4 3.3-2 4.4-1.4 4.7-1.4 4.7-.2zm115-.1c0 .5-.4 1-1 1-.5 0-1-.5-1-1 0-.6.5-1 1-1 .6 0 1 .4 1 1zm4-.6c0 1.1-1.9 1.5-2.5.6-.3-.5.1-1 .9-1 .9 0 1.6.2 1.6.4zm189.8 1.5c.3.8-.1 1.2-.9.9-.7-.2-1.5-1-1.7-1.7-.3-.8.1-1.2.9-.9.7.2 1.5 1 1.7 1.7zm-390 .3c1.9 1.9 1.4 2.9-.8 1.6-2-1.3-2.7-2.8-1.2-2.8.4 0 1.3.5 2 1.2zM393 259c0 .5-.4 1-1 1-.5 0-1-.5-1-1 0-.6.5-1 1-1 .6 0 1 .4 1 1zm-3.5 1c-.3.5-1.1 1-1.6 1-.6 0-.7-.5-.4-1 .3-.6 1.1-1 1.6-1 .6 0 .7.4.4 1zM184 262.1c0 .5-.4.9-1 .9-.5 0-1-.7-1-1.6 0-.8.5-1.2 1-.9.6.3 1 1 1 1.6zm89-.9c0 .6-.3.8-.6.5-.4-.3-1.5-.2-2.6.4-2.3 1.3-3.9.2-1.8-1.1 2.1-1.3 5-1.2 5 .2zm109.5-.2c.3.5-.1 1-1 1s-1.3-.5-1-1c.3-.6.8-1 1-1 .2 0 .7.4 1 1zm3.5-.6c0 .3-.4.8-1 1.1-.5.3-1 .1-1-.4 0-.6.5-1.1 1-1.1.6 0 1 .2 1 .4zm-181 2.7c0 .6-.4.7-1 .4-.5-.3-1-1.1-1-1.6 0-.6.5-.7 1-.4.6.3 1 1.1 1 1.6zm173.5-1.1c.3.5.1 1-.4 1-.6 0-1.1-.5-1.1-1 0-.6.2-1 .4-1 .3 0 .8.4 1.1 1zm213.2 1.2c-.3.8-.6.5-.6-.6-.1-1.1.2-1.7.5-1.3.3.3.4 1.2.1 1.9zM265 264c-2.4 1.5-3.6 1.1-1.4-.4 1-.8 2.1-1.2 2.4-1 .2.3-.2.9-1 1.4zm106.7-.4c-.3.3-1.2.4-1.9.1-.8-.3-.5-.6.6-.6 1.1-.1 1.7.2 1.3.5zM209 266.1c0 .4-.7.6-1.5.3-.8-.4-1.5-1-1.5-1.5 0-.4.7-.6 1.5-.3.8.4 1.5 1 1.5 1.5zm51-1.1c-1.8 1.2-3 1.3-3 .2 0-.4 1-.9 2.2-.9 1.8-.2 2 0 .8.7zm104-.1c0 .6-.4 1.3-1 1.6-.5.3-1-.1-1-.9 0-.9.5-1.6 1-1.6.6 0 1 .4 1 .9zm4-.5c0 1.1-1.9 1.5-2.5.6-.3-.5.1-1 .9-1 .9 0 1.6.2 1.6.4zM184 266c0 .5-.4 1-1 1-.5 0-1-.5-1-1 0-.6.5-1 1-1 .6 0 1 .4 1 1zm173.1 1.3c-1.3 1.3-2.6.3-1.6-1.2.3-.6 1.1-.8 1.7-.5.6.4.6 1-.1 1.7zm235.9-.7c0 .8-.4 1.2-1 .9-.5-.3-1-1-1-1.6 0-.5.5-.9 1-.9.6 0 1 .7 1 1.6zm-339.4.3c-.8 1.2-4.6 2.1-4.6 1.1 0-.9 1.8-1.8 3.8-1.9.7-.1 1.1.3.8.8zm100.4.1c0 .5-.4 1-1 1-.5 0-1-.5-1-1 0-.6.5-1 1-1 .6 0 1 .4 1 1zm-4 1c0 .5-.5 1-1.1 1-.5 0-.7-.5-.4-1 .3-.6.8-1 1.1-1 .2 0 .4.4.4 1zm154.4.5c-.7 1.6-2.4 2.1-2.4.6 0-.8.7-1.3 2.7-2 .1-.1 0 .6-.3 1.4zM215 271c0 1.4-1.4 1.2-2.8-.2-1.9-1.9-1.4-3 .8-1.8 1.1.6 2 1.5 2 2zm30-2c0 .5-.4 1-1 1-.5 0-1-.5-1-1 0-.6.5-1 1-1 .6 0 1 .4 1 1zm102 0c0 .5-.4 1-1 1-.5 0-1-.5-1-1 0-.6.5-1 1-1 .6 0 1 .4 1 1zm-164 1c0 .5-.4 1-1 1-.5 0-1-.5-1-1 0-.6.5-1 1-1 .6 0 1 .4 1 1zm56 0c0 .5-.5 1-1.1 1-.5 0-.7-.5-.4-1 .3-.6.8-1 1.1-1 .2 0 .4.4.4 1zm3 0c0 .5-.4 1-1 1-.5 0-1-.5-1-1 0-.6.5-1 1-1 .6 0 1 .4 1 1zm98 0c0 .5-.5 1-1.1 1-.5 0-.7-.5-.4-1 .3-.6.8-1 1.1-1 .2 0 .4.4.4 1zm3 0c0 .5-.5 1-1.1 1-.5 0-.7-.5-.4-1 .3-.6.8-1 1.1-1 .2 0 .4.4.4 1zm-107 1c0 .5-.4 1-1 1-.5 0-1-.5-1-1 0-.6.5-1 1-1 .6 0 1 .4 1 1zm100.5 0c.3.5.1 1-.4 1-.6 0-1.1-.5-1.1-1 0-.6.2-1 .4-1 .3 0 .8.4 1.1 1zm-105 1c.3.5-.1 1-1 1s-1.3-.5-1-1c.3-.6.8-1 1-1 .2 0 .7.4 1 1zm101.5-.2c0 .4-1.2.8-2.7.9-2.4.1-2.5.1-.8-.7 2.6-1.1 3.5-1.2 3.5-.2zm-150.5 1.1c.3.5.1 1.2-.5 1.6-.5.3-1-.1-1-.9 0-1.8.6-2.1 1.5-.7zm315 3.3c-4.4 4.7-5.7 5.8-6.7 5.8-.4 0 1.4-2.3 4-5 2.5-2.8 5.1-5 5.6-5 .6 0-.8 1.9-2.9 4.2zM327 273.4c0 .3-.4.8-1 1.1-.5.3-1 .1-1-.4 0-.6.5-1.1 1-1.1.6 0 1 .2 1 .4zm-107 3.1c1.3 1.4 1.9 2.5 1.4 2.5-.8-.1-5-5-4.1-5 .2 0 1.4 1.1 2.7 2.5zm15.1 1c2.2 1.9 3.5 3.5 3 3.5-1.2 0-8.9-6.9-7.7-7 .5 0 2.6 1.6 4.7 3.5zM321 275c0 .5-.4 1-1 1-.5 0-1-.5-1-1 0-.6.5-1 1-1 .6 0 1 .4 1 1zm-8 2c-2 1.3-4.3 1.3-3.5 0 .4-.6 1-.8 1.5-.5.5.3 1.2 0 1.5-.6.4-.5 1-.8 1.3-.4.4.3 0 1-.8 1.5zm4-1c0 .5-.4 1-1 1-.5 0-1-.5-1-1 0-.6.5-1 1-1 .6 0 1 .4 1 1zm274 1c0 .5-.4 1-1 1-.5 0-1-.5-1-1 0-.6.5-1 1-1 .6 0 1 .4 1 1zm-283.1 1.4c-.2.2-2.2.6-4.4.9l-4 .6 4-1.3c3.5-1.2 5.6-1.3 4.4-.2zm-9.1 2.1c-1.1 1.2-6.8 2.3-6.8 1.4 0-.5.7-1 1.5-1 2.8-.3 3.3-.4 4.1-1.2.4-.4 1-.5 1.2-.2.3.3.3.7 0 1zm133.9 0c2 .8 3.3 1.8 2.9 2.2-.3.4-1.2.1-1.8-.5-.7-.7-2.2-1.2-3.5-1.2-1.3 0-2.3-.5-2.3-1 0-1.3.4-1.3 4.7.5zm154.8-.5c-.3.5-1.1 1-1.6 1-.6 0-.7-.5-.4-1 .3-.6 1.1-1 1.6-1 .6 0 .7.4.4 1zm-406.5.4c0 .3-.4.8-1 1.1-.5.3-1 .1-1-.4 0-.6.5-1.1 1-1.1.6 0 1 .2 1 .4zm43.8 1.8c-.6 1.6-2.1 1.4-2.4-.4-.1-1.1.3-1.5 1.2-1.1.8.3 1.3 1 1.2 1.5zM425 281c0 .5-.7 1-1.5 1s-1.5-.5-1.5-1c0-.6.7-1 1.5-1s1.5.4 1.5 1zm140 0c0 .5-.7 1-1.5 1s-1.5-.5-1.5-1c0-.6.7-1 1.5-1s1.5.4 1.5 1zm17.4-.4c.9.3 1.6 1 1.6 1.4 0 1-3.8.1-4.6-1.1-.6-1 .7-1.2 3-.3zm-291.4 2c0 .8-.5 1.2-1 .9-.6-.4-.8-1.1-.5-1.6.9-1.4 1.5-1.1 1.5.7zm-42.9 2c1.7 2.1-.5 1.7-3.2-.5-2.4-2-2.4-2-.2-1.4 1.2.3 2.8 1.1 3.4 1.9zm38.9-.6c-1.9 1.2-3 1.2-3 .1 0-1 3.1-2 4-1.4.2.2-.2.8-1 1.3zm267-1c0 .5-.4 1-1 1-.5 0-1-.5-1-1 0-.6.5-1 1-1 .6 0 1 .4 1 1zm-374 1c0 .5-.4 1-1 1-.5 0-1-.5-1-1 0-.6.5-1 1-1 .6 0 1 .4 1 1zm371-.2c0 .5-1.2 1.4-2.7 2.1l-2.8 1.1 2.4-2c2.6-2.2 3.1-2.4 3.1-1.2zM283 285c0 .5-.8 1-1.7 1-1.5 0-1.6-.2-.3-1 1.9-1.2 2-1.2 2 0zm158.5.1c1.2 1.9-.5 2.3-2.2.6-1.6-1.6-1.6-1.7-.1-1.7.9 0 2 .5 2.3 1.1zm46.5-.2c0 1.2-2 2.5-2.7 1.8-.7-.7.6-2.7 1.8-2.7.5 0 .9.4.9.9zM224 286c0 .5-.4 1-1 1-.5 0-1-.5-1-1 0-.6.5-1 1-1 .6 0 1 .4 1 1zm31.9.6c1 .9-.6 1.2-3.1.7-1.6-.3-2.8-.9-2.8-1.4 0-.8 4.8-.2 5.9.7zm-76.9.4c0 .5-.5 1-1.1 1-.5 0-.7-.5-.4-1 .3-.6.8-1 1.1-1 .2 0 .4.4.4 1zm99-.6c0 .2-.7.6-1.5 1-.8.3-1.5.1-1.5-.4 0-.6.7-1 1.5-1s1.5.2 1.5.4zm169 2.9c0 .4-.9.3-2-.3s-2-1.5-2-2c0-.6.9-.5 2 .2s2 1.6 2 2.1zm98-2.8c0 .5-6.8 3.5-7.9 3.5-.8-.1 6.1-3.9 7.2-4 .4 0 .7.2.7.5zM271 289c-2.7 2.1-6 2.6-6 .9 0-.5.4-.7 1-.4.5.3 2.2-.1 3.7-.9 3.8-2.1 4.3-1.9 1.3.4zm142-1.1c0 .5-.9 1.2-2 1.5-1.1.3-2.9.9-4 1.2-1.1.3-2 .1-2-.5s1.1-1.1 2.4-1.1c1.4 0 2.8-.5 3.1-1 .8-1.3 2.5-1.3 2.5-.1zm71 .1c0 .5-.4 1-1 1-.5 0-1-.5-1-1 0-.6.5-1 1-1 .6 0 1 .4 1 1zm-5.6 4.4c-1.6 1.3-3.1 2.2-3.4 1.9-.3-.3.8-1.5 2.5-2.8 3.8-3.1 4.6-2.3.9.9zm-25.8-.9c1 .8 1.4 1.5.8 1.5-.5 0-1.9-.7-3-1.5-1-.8-1.4-1.5-.8-1.5.5 0 1.9.7 3 1.5zm83.4-1.1c0 .2-.9.6-2 .9-1.1.3-1.8.1-1.4-.4.5-.9 3.4-1.3 3.4-.5zM222 292c0 .5-.4 1-1 1-.5 0-1-.5-1-1 0-.6.5-1 1-1 .6 0 1 .4 1 1zm177 .4c0 .3-.4.8-1 1.1-.5.3-1 .1-1-.4 0-.6.5-1.1 1-1.1.6 0 1 .2 1 .4zm131.5.6c-.3.5-1 1-1.6 1-.5 0-.9-.5-.9-1 0-.6.7-1 1.6-1 .8 0 1.2.4.9 1zM394 294c0 .5-.4 1-.9 1s-1.6.3-2.5.6c-.9.3-1.6.1-1.6-.4 0-.9 1.6-1.7 4.3-2.1.4 0 .7.3.7.9zm65.5 2c.3.6.3 1-.2 1-1.1-.1-4.3-2.6-4.3-3.4 0-.9 3.7 1.1 4.5 2.4zm-71.5-1c0 .5-.5 1-1.1 1-.5 0-.7-.5-.4-1 .3-.6.8-1 1.1-1 .2 0 .4.4.4 1zm86-.2c0 .4-2 1.8-4.5 3-3.6 1.8-5 2-6.6 1.1-1.2-.6-1.8-1.3-1.5-1.6.3-.3 1.2 0 2.1.7 1.2 1 1.8 1 3.1-.1 3.5-2.9 7.4-4.5 7.4-3.1zm40.5.2c.3.5.1 1-.4 1-.6 0-1.1-.5-1.1-1 0-.6.2-1 .4-1 .3 0 .8.4 1.1 1zm12 0c-.3.5-1.4 1-2.3 1-1.5 0-1.5-.2-.2-1 2-1.3 3.3-1.3 2.5 0zm-349.9 2.7c-1 1-1.9-.5-1-1.8.6-1.1.8-1.1 1.2 0 .2.7.1 1.5-.2 1.8zM385 296c0 .5-.5 1-1.1 1-.5 0-.7-.5-.4-1 .3-.6.8-1 1.1-1 .2 0 .4.4.4 1zm126 1c-2 1.3-3.3 1.3-2.5 0 .3-.6 1.4-1 2.3-1 1.5 0 1.5.2.2 1zm-135.1 1.4c-.2.2-1.8.7-3.4 1.1l-3 .6 3-1.4c2.7-1.3 4.5-1.4 3.4-.3zm131.1.6c0 .5-.4 1-1 1-.5 0-1-.5-1-1 0-.6.5-1 1-1 .6 0 1 .4 1 1zm-138 1c0 .5-.5 1-1.1 1-.5 0-.7-.5-.4-1 .3-.6.8-1 1.1-1 .2 0 .4.4.4 1zm-149.6 2.2c-.8 2.7-1.2 3.3-1.9 2.7-.7-.8.7-4.9 1.7-4.9.5 0 .6 1 .2 2.2zM366 301c0 .5-.4 1-1 1-.5 0-1-.5-1-1 0-.6.5-1 1-1 .6 0 1 .4 1 1zm137.2 1.2c-.7.7-1.2.8-1.2.2 0-.6.3-1.4.7-1.7.3-.4.9-.5 1.2-.2.2.3-.1 1.1-.7 1.7zM359 302c0 .5-.4 1-1 1-.5 0-1-.5-1-1 0-.6.5-1 1-1 .6 0 1 .4 1 1zm4-.6c0 1.1-1.9 1.5-2.5.6-.3-.5.1-1 .9-1 .9 0 1.6.2 1.6.4zm-7.5 1.6c-.3.5-1 1-1.6 1-.5 0-.9-.5-.9-1 0-.6.7-1 1.6-1 .8 0 1.2.4.9 1zm-4.5 1c0 .5-.4 1-1 1-.5 0-1-.5-1-1 0-.6.5-1 1-1 .6 0 1 .4 1 1zm138 0c0 .5-.5 1-1.1 1-.5 0-.7-.5-.4-1 .3-.6.8-1 1.1-1 .2 0 .4.4.4 1zm4.7-.4c-.3.3-1.2.4-1.9.1-.8-.3-.5-.6.6-.6 1.1-.1 1.7.2 1.3.5zm3.3 0c0 .3-.7 1.2-1.5 2-1.6 1.7-1.8 1.4-.9-1 .6-1.5 2.4-2.3 2.4-1zM175 305c0 .5-.4 1-1 1-.5 0-1-.5-1-1 0-.6.5-1 1-1 .6 0 1 .4 1 1zm168 0c0 .5-.5 1-1.1 1-.5 0-.7-.5-.4-1 .3-.6.8-1 1.1-1 .2 0 .4.4.4 1zm4.5 0c-.3.5-1 1-1.6 1-.5 0-.9-.5-.9-1 0-.6.7-1 1.6-1 .8 0 1.2.4.9 1zm-12.5 1c0 .5-.5 1-1.1 1-.5 0-.7-.5-.4-1 .3-.6.8-1 1.1-1 .2 0 .4.4.4 1zm4 0c0 .5-.4 1-1 1-.5 0-1-.5-1-1 0-.6.5-1 1-1 .6 0 1 .4 1 1zm146 0c-.8.5-2.2 1-3 1-1.3 0-1.3-.1 0-1 .8-.5 2.2-1 3-1 1.3 0 1.3.1 0 1zm-193.7 2.9c1.5.6 2.7 1.3 2.7 1.6 0 .3-1.6-.2-3.6-1-2.8-1.1-4-1.2-5-.4-1.1.9-1.4.8-1.4-.4 0-1.7 2.7-1.6 7.3.2zm39.4-1.3c-.3.3-1.2.4-1.9.1-.8-.3-.5-.6.6-.6 1.1-.1 1.7.2 1.3.5zm147.5.4c-1.2.5-2.5 1.8-2.8 2.7-1.4 4.1-3.6 8.4-4.1 7.9-.3-.3.7-3 2.1-6.1 2.1-4.2 3.3-5.5 4.9-5.4 2.2 0 2.2 0-.1.9zm-262.1 3.3c-.8.8-1.1.7-1.1-.4 0-2 1.3-3.4 1.8-1.9.3.7-.1 1.7-.7 2.3zm110.6-2.7c-.3.3-1.2.4-1.9.1-.8-.3-.5-.6.6-.6 1.1-.1 1.7.2 1.3.5zm-155.2 5.1c-.9 1.5-1.3 1.9-1 .8.4-1.1 1-2.9 1.3-4 .3-1.1.7-1.4.9-.8.3.7-.3 2.4-1.2 4zm147.5-4.3c0 .3-.4.8-1 1.1-.5.3-1 .1-1-.4 0-.6.5-1.1 1-1.1.6 0 1 .2 1 .4zm3.7.2c-.3.3-1.2.4-1.9.1-.8-.3-.5-.6.6-.6 1.1-.1 1.7.2 1.3.5zm-25.2 1.4c.3.5.2 1-.4 1-.5 0-1.3-.5-1.6-1-.3-.6-.2-1 .4-1 .5 0 1.3.4 1.6 1zm18.2-.3c-1.1 1-5.8 1.3-5.2.2.4-.5 1.8-.9 3.2-.9 1.5 0 2.3.3 2 .7zm-30.1 3.8c-.2.7.4 3 1.4 5.1 1.1 2.1 1.8 4 1.6 4.2-.3.2-1.4-1.4-2.5-3.7-2.2-4.3-2.8-8.7-1-7.6.6.4.8 1.3.5 2zm20.9-1.5c-.9 1.4-4.4 1.8-6 .6-1.3-.9-.9-1.2 2.4-1.2 2.3-.1 3.9.2 3.6.6zm-89.8 1.6c-.3.3-1.2.4-1.9.1-.8-.3-.5-.6.6-.6 1.1-.1 1.7.2 1.3.5zm-1.9 3.4c-.7 1-1.4 1.8-1.5 1.6-.6-.6.9-3.6 1.8-3.6.5 0 .4.9-.3 2zm192.3 4.5c-.3.5-.7.2-.9-.8-.2-.9-.9-1.7-1.5-1.7-.7 0-.6-.4.3-1 1.1-.7 1.7-.5 2.1.8.4.9.4 2.1 0 2.7zm50.9-3c-.7.9-1.5 1.3-1.7 1.1-.7-.7.7-2.6 1.9-2.6.6 0 .6.6-.2 1.5zm-288 .5c0 .5-.4 1-1 1-.5 0-1-.5-1-1 0-.6.5-1 1-1 .6 0 1 .4 1 1zm231 0c0 .5-.7 1-1.5 1s-1.5-.5-1.5-1c0-.6.7-1 1.5-1s1.5.4 1.5 1zm-6 1c0 .5-.7 1-1.6 1-.8 0-1.2-.5-.9-1 .3-.6 1-1 1.6-1 .5 0 .9.4.9 1zm-182.9 2.3c-1 .9-1.1.8-.5-.6.3-1 .9-1.5 1.2-1.2.3.3 0 1.1-.7 1.8zm174.4-1.3c.3.5-.1 1-1 1s-1.3-.5-1-1c.3-.6.8-1 1-1 .2 0 .7.4 1 1zm4.5 0c0 .5-.7 1-1.5 1s-1.5-.5-1.5-1c0-.6.7-1 1.5-1s1.5.4 1.5 1zm64-.6c0 .3-.4.8-1 1.1-.5.3-1 .1-1-.4 0-.6.5-1.1 1-1.1.6 0 1 .2 1 .4zm-72.5 1.6c.3.5-.1 1-1 1s-1.3-.5-1-1c.3-.6.8-1 1-1 .2 0 .7.4 1 1zm68.5 1.5c-.7.9-1.5 1.3-1.7 1.1-.7-.7.7-2.6 1.9-2.6.6 0 .6.6-.2 1.5zm-43.5.3c-.6.4-1.8 2.3-2.8 4.2-1 1.9-1.5 2.6-1.1 1.5.4-1.1.9-3 1.1-4.3.3-1.2 1.3-2.2 2.2-2.2.9 0 1.2.3.6.8zM167.7 328c-.9 2.5-2.7 4.2-2.7 2.6 0-1.5 2.1-5.6 2.9-5.6.5 0 .4 1.3-.2 3zm43.3 1.4c-.6 2-1.5 3.6-2 3.6s-.2-1.2.6-2.8c.7-1.5 1.4-3.3 1.4-4.1 0-.8.3-1.2.6-.8.3.3.1 2.2-.6 4.1zm80.8-2.6c3.2 3.3 4.5 5.2 3.4 5.2-.5 0-2.2-1.6-3.6-3.5-2.9-3.7-2.8-4.7.2-1.7zm80.2-1.4c0 1.1-1.9 1.5-2.5.6-.3-.5.1-1 .9-1 .9 0 1.6.2 1.6.4zm-7 1.6c0 .5-.4 1-1 1-.5 0-1-.5-1-1 0-.6.5-1 1-1 .6 0 1 .4 1 1zm82.4.4c-.6 1.7-3.4 3-3.4 1.6 0-.5.8-1.4 1.8-1.9 2.2-1.3 2.2-1.3 1.6.3zm-88.4.6c0 .5-.4 1-1 1-.5 0-1-.5-1-1 0-.6.5-1 1-1 .6 0 1 .4 1 1zm3 0c0 .5-.4 1-1 1-.5 0-1-.5-1-1 0-.6.5-1 1-1 .6 0 1 .4 1 1zm-6 1c0 .5-.4 1-1 1-.5 0-1-.5-1-1 0-.6.5-1 1-1 .6 0 1 .4 1 1zm-3 .9c0 .5-.9 1.1-2 1.4-1.1.3-2 .1-2-.3 0-.5.8-1.1 1.8-1.3.9-.3 1.8-.5 2-.6.1 0 .2.3.2.8zm-5.5 2.1c-.3.5-1.3 1-2.1 1s-1.2-.5-.9-1c.3-.6 1.3-1 2.1-1s1.2.4.9 1zm92 3c-1.6 1.6-3.3 3-3.9 3-.5 0 .3-1.4 1.9-3 1.6-1.7 3.3-3 3.9-3 .5 0-.3 1.3-1.9 3zm-36.2 0c-.3 1.1-1 2.3-1.6 2.7-.7.4-.8 0-.4-1.1.4-1 .7-2.2.7-2.7s.4-.9.9-.9.7.9.4 2zm-238 1c-.3 1.1-.9 2-1.3 2-.5 0-.6-.9-.3-2s.9-2 1.3-2c.5 0 .6.9.3 2zm43.7-.5c0 .8-.4 1.5-1 1.5-.5 0-1-.7-1-1.5s.5-1.5 1-1.5c.6 0 1 .7 1 1.5zm-2.1 5.6c-1.3 2.6-2.3 1.8-1.4-1 .3-1.2 1.1-1.9 1.6-1.6.5.4.5 1.4-.2 2.6zm126.4 1.7c-.3 1.2-.9 1.9-1.4 1.6-.5-.3-.3-1.4.3-2.4 1.5-2.4 1.9-2.1 1.1.8zm64.7 2.3c-.7 1.1-1.4 1.8-1.7 1.5-.3-.3 0-1.2.7-2.1 1.8-2.1 2.3-1.9 1 .6zm-194.2 3c-1 2.2-2.1 3.9-2.3 3.7-.6-.6 2.8-7.8 3.6-7.8.4 0-.2 1.8-1.3 4.1zm-42.2.6c-1.1 1.1-1.7-.4-.9-2.3.7-1.8.8-1.8 1.1-.1.2 1 .1 2.1-.2 2.4zm163.9-1.7c.3.5-.1 1-1 1s-1.3-.5-1-1c.3-.6.8-1 1-1 .2 0 .7.4 1 1zm6.3.2c-.3.7-1.3 1.5-2.4 1.7-1.6.3-1.7.1-.5-1.3 1.6-1.9 3.4-2.1 2.9-.4zm-10.8.8c0 .5-.7 1-1.6 1-.8 0-1.2-.5-.9-1 .3-.6 1-1 1.6-1 .5 0 .9.4.9 1zm75 .6c0 .7-2.7 3.4-3.4 3.4-.4 0-.1-.9.6-2 1.2-1.9 2.8-2.7 2.8-1.4zM161 351c0 .5-.4 1-1 1-.5 0-1-.5-1-1 0-.6.5-1 1-1 .6 0 1 .4 1 1zm154 0c0 .5-.4 1-1 1-.5 0-1-.5-1-1 0-.6.5-1 1-1 .6 0 1 .4 1 1zm-154.5 3c-.3.5-1 1-1.6 1-.5 0-.9-.5-.9-1 0-.6.7-1 1.6-1 .8 0 1.2.4.9 1zm40.5 1.5c-1 2.7-6 10.4-6 9.4 0-1.6 5.3-11.9 6-11.9.6 0 .5 1.1 0 2.5zm190.3.1c-.9 1.5-1.9 2.1-2.1 1.5-.4-1.3 1.6-4.1 2.9-4.1.5 0 .2 1.2-.8 2.6zm22.8 4.7c-2.4 2.3-3.8 3.3-3.3 2.2 1.6-2.9 6.3-7.7 7-7 .3.3-1.3 2.5-3.7 4.8zm-254.4.7c.1 2.8-.2 5-.7 5-.6 0-1-2.3-1-5 0-6.5 1.4-6.5 1.7 0zm227.3 0c0 .5-.5 1-1.1 1-.5 0-.7-.5-.4-1 .3-.6.8-1 1.1-1 .2 0 .4.4.4 1zm-191 5.4c0 .2-.7.9-1.5 1.6-1.3 1.1-1.4 1-.9-.4.5-1.4 2.4-2.3 2.4-1.2zm154.5 5.4c-.8.8-2.6-3.9-1.9-5 .5-.8 1.1-.1 1.6 1.7.4 1.6.6 3.1.3 3.3zm52.9.3c-2.7 3-3.7 2.2-1.2-1.2 1.2-1.6 2.4-2.5 2.6-1.9.2.6-.4 2-1.4 3.1zm-242.6.4c0 1.4-.5 2.5-1.1 2.5-.6 0-.7-.3-.4-.7.4-.3.2-1.2-.4-1.9-.6-.7-.8-1.8-.4-2.4 1-1.6 2.3-.3 2.3 2.5zm32.2-1.6c0 .6-.4 1.3-1 1.6-.5.3-1-.1-1-.9 0-.9.5-1.6 1-1.6.6 0 1 .4 1 .9zm166.7 9.8c-.9.8-7.7-6.2-7.7-8 0-.6 1.9.7 4.2 3 2.3 2.3 3.9 4.6 3.5 5zm-172.1-.2c-2.1 3-4.2 5.5-4.7 5.5s-.1-.9.9-2 2.5-3.3 3.2-4.8c1.9-3.7 3.2-5.3 3.8-4.8.2.3-1.2 3-3.2 6.1zm212.4-3c.7.8.9 1.5.6 1.5-.4 0-1.4-.7-2.2-1.5-.9-.8-1.1-1.5-.6-1.5.5 0 1.5.7 2.2 1.5zm-235.6 5.4c-.5.6-3.3-3.1-3.3-4.4-.1-.6.8.1 1.9 1.5 1 1.4 1.7 2.7 1.4 2.9zm240 2c-.5.6-3.3-3.1-3.3-4.4-.1-.6.8.1 1.9 1.5 1 1.4 1.7 2.7 1.4 2.9zm102.6-3.1c0 .5-1.6 1.3-3.5 1.9-2.8.9-3.5.8-3.5-.2 0-1.2 1.8-1.9 5.8-2.4.6 0 1.2.3 1.2.7zm9 1.2c0 .5-.7 1-1.5 1s-1.5-.5-1.5-1c0-.6.7-1 1.5-1s1.5.4 1.5 1zm6.4.5c-.7 1.7-2 2-2.8.6-.7-1 .3-2.1 2-2.1.8 0 1.1.6.8 1.5zm-23.4.5c0 .5-.3 1-.7 1-.5 0-1.9.3-3.2.7-1.7.4-2.2.3-1.7-.6.4-.6 1.1-.9 1.6-.6.5.3 1.1.1 1.5-.5.8-1.3 2.5-1.3 2.5 0zm28.6.5c3 1.6 2.5 1.9-1.3.9-1.3-.4-2.3-1-2.3-1.5 0-1.2.3-1.1 3.6.6zM368 388.2c0 1.4-1.9-.1-3.1-2.5-1.2-2.2-1.2-2.2 1-.3 1.1 1.1 2.1 2.3 2.1 2.8zm124-2.2c0 .5-.4 1-1 1-.5 0-1-.5-1-1 0-.6.5-1 1-1 .6 0 1 .4 1 1zm-321 1c0 .5-.2 1-.4 1-.3 0-.8-.5-1.1-1-.3-.6-.1-1 .4-1 .6 0 1.1.4 1.1 1zm4 1.1c0 .5-.4.9-1 .9-.5 0-1-.7-1-1.6 0-.8.5-1.2 1-.9.6.3 1 1 1 1.6zm232-1.1c0 .5-.4 1-1 1-.5 0-1-.5-1-1 0-.6.5-1 1-1 .6 0 1 .4 1 1zm80.5 0c-.3.5-1 1-1.6 1-.5 0-.9-.5-.9-1 0-.6.7-1 1.6-1 .8 0 1.2.4.9 1zm52.4 1.6c.9 1-5.3-.6-6.3-1.7-.6-.5.4-.5 2.4.1 1.8.5 3.5 1.2 3.9 1.6zM178 388c0 .5-.4 1-1 1-.5 0-1-.5-1-1 0-.6.5-1 1-1 .6 0 1 .4 1 1zm5-.1c0 1.2-2 2.5-2.7 1.8-.7-.7.6-2.7 1.8-2.7.5 0 .9.4.9.9zm290.5.1c-.3.5-2 1-3.6 1-1.8 0-2.8-.4-2.4-1 .3-.6 2-1 3.6-1 1.8 0 2.8.4 2.4 1zm8.5-.6c0 .9-3 1.4-3.5.6-.4-.6.3-1 1.4-1 1.2 0 2.1.2 2.1.4zm-29 1.6c-3.6 1.2-7 1.2-7 0 0-.6 2.1-1 4.8-.9 3.8.1 4.2.2 2.2.9zm-78 10.3c0 2-2.1 3.7-4.5 3.6-1.8 0-1.7-.1.5-1 3.4-1.4 3.4-1.1.6-7-1.4-2.9-2.6-5.5-2.6-5.8.1-1.2 6 9 6 10.2zm34.4-8.7c.9 2.4.7 2.7-.9 1-1.7-1.7-1.9-2.6-.6-2.6.5 0 1.2.7 1.5 1.6zm31.1-.6c-.3.5-1.5 1-2.6 1s-1.7-.5-1.4-1c.3-.6 1.5-1 2.6-1s1.7.4 1.4 1zm102 0c.3.5.1 1-.4 1-.6 0-1.1-.5-1.1-1 0-.6.2-1 .4-1 .3 0 .8.4 1.1 1zM428 391c0 .5-.4 1-1 1-.5 0-1-.5-1-1 0-.6.5-1 1-1 .6 0 1 .4 1 1zm5 0c0 .5-.4 1-1 1-.5 0-1-.5-1-1 0-.6.5-1 1-1 .6 0 1 .4 1 1zm113 0c0 .5-.4 1-1 1-.5 0-1-.5-1-1 0-.6.5-1 1-1 .6 0 1 .4 1 1zm-125 .8c0 .8-6.1 3.4-6.7 2.8-.3-.3 5.5-3.5 6.5-3.6.1 0 .2.4.2.8zm3 .2c0 .5-.4 1-1 1-.5 0-1-.5-1-1 0-.6.5-1 1-1 .6 0 1 .4 1 1zm125 .5c1.1 1.3 1 1.4-.4.9-.9-.3-1.6-1-1.6-1.5 0-1.3.6-1.1 2 .6zM412.5 395c.3.5.1 1-.4 1-.6 0-1.1-.5-1.1-1 0-.6.2-1 .4-1 .3 0 .8.4 1.1 1zm145.4 2.9c0 1-.2 1.1-.6.3-.2-.6-1.1-1.2-1.8-1.2-.8 0-1.6-.4-1.9-.9-.3-.4.6-.6 1.9-.3 1.5.2 2.5 1.1 2.4 2.1zM56 399c.8.5 1.1 1 .5 1-.5 0-1.7-.5-2.5-1s-1-1-.5-1c.6 0 1.7.5 2.5 1zm506.7 1.6c-.7.7-3.7-.7-3.7-1.7 0-.6.9-.5 2.1.1 1.1.7 1.9 1.4 1.6 1.6zM64 402c.8.5 1.1 1 .5 1-.5 0-1.7-.5-2.5-1s-1-1-.5-1c.6 0 1.7.5 2.5 1zm303 2c-1.9 1.3-3 1.3-3 0 0-.6 1-1 2.3-1 1.8 0 1.9.2.7 1zm201.3.4c.4 1 .1 1.3-.9.9-.7-.3-1.4-.9-1.4-1.4 0-1.4 1.7-1 2.3.5zM72 405c.8.5 1.1 1 .5 1-.5 0-1.7-.5-2.5-1s-1-1-.5-1c.6 0 1.7.5 2.5 1zm287.5 1.1c-.4.6-1 .8-1.3.5-.3-.3-1.1-.1-1.9.5-.8.8-1.3.8-1.3.1 0-1.1 1.6-2 3.8-2.1.7-.1 1 .4.7 1zm-5.5.9c0 .5-.4 1-1 1-.5 0-1-.5-1-1 0-.6.5-1 1-1 .6 0 1 .4 1 1zm-274 1c.8.5 1.1 1 .5 1-.5 0-1.7-.5-2.5-1s-1-1-.5-1c.6 0 1.7.5 2.5 1zm267 0c0 .5-.5 1-1.1 1-.5 0-.7-.5-.4-1 .3-.6.8-1 1.1-1 .2 0 .4.4.4 1zm4-.6c0 .3-.4.8-1 1.1-.5.3-1 .1-1-.4 0-.6.5-1.1 1-1.1.6 0 1 .2 1 .4zm-7 1.6c0 .5-.4 1-1 1-.5 0-1-.5-1-1 0-.6.5-1 1-1 .6 0 1 .4 1 1zm230 1.2c1.1 1.2 2 2.6 2 3 0 .5-1.1-.3-2.5-1.8s-2.5-2.9-2.5-3c0-.9 1.1-.2 3 1.8zm-233-.2c0 .5-.7 1-1.6 1-.8 0-1.2-.5-.9-1 .3-.6 1-1 1.6-1 .5 0 .9.4.9 1zm-4 1c0 .5-.5 1-1.1 1-.5 0-.7-.5-.4-1 .3-.6.8-1 1.1-1 .2 0 .4.4.4 1zm-3 .4c0 .3-.4.8-1 1.1-.5.3-1 .1-1-.4 0-.6.5-1.1 1-1.1.6 0 1 .2 1 .4zm-7 1.6c0 .5-.4 1-1 1-.5 0-1-.5-1-1 0-.6.5-1 1-1 .6 0 1 .4 1 1zm3.7-.4c-.3.3-1.2.4-1.9.1-.8-.3-.5-.6.6-.6 1.1-.1 1.7.2 1.3.5zm-7 1c-.3.3-1.2.4-1.9.1-.8-.3-.5-.6.6-.6 1.1-.1 1.7.2 1.3.5zM99 415c.8.5 1.1 1 .5 1-.5 0-1.7-.5-2.5-1s-1-1-.5-1c.6 0 1.7.5 2.5 1zm220.5 0c-.3.5-1 1-1.6 1-.5 0-.9-.5-.9-1 0-.6.7-1 1.6-1 .8 0 1.2.4.9 1zm-7.5 1c0 .5-.4 1-1 1-.5 0-1-.5-1-1 0-.6.5-1 1-1 .6 0 1 .4 1 1zm4 0c0 .5-.4 1-.9 1-.6 0-1.3-.5-1.6-1-.3-.6.1-1 .9-1 .9 0 1.6.4 1.6 1zm264 5c0 1.6-.7 3-1.5 3.4-1.8.6-2-.5-.4-2.1.9-.9.8-1.8-.5-3.7-2.2-3.4-2-4.3.4-2.1 1.1 1 2 3 2 4.5zm-275-4.1c0 .6-.4 1.3-1 1.6-.5.3-1-.1-1-.9 0-.9.5-1.6 1-1.6.6 0 1 .4 1 .9zm4-.5c0 1.1-1.9 1.5-2.5.6-.3-.5.1-1 .9-1 .9 0 1.6.2 1.6.4zM107 418c.8.5 1.1 1 .5 1-.5 0-1.7-.5-2.5-1s-1-1-.5-1c.6 0 1.7.5 2.5 1zm194 0c0 .5-.4 1-1 1-.5 0-1-.5-1-1 0-.6.5-1 1-1 .6 0 1 .4 1 1zm-4 1c0 .5-.4 1-1 1-.5 0-1-.5-1-1 0-.6.5-1 1-1 .6 0 1 .4 1 1zm-4 1c0 .5-.4 1-1 1-.5 0-1-.5-1-1 0-.6.5-1 1-1 .6 0 1 .4 1 1zm-178 1c.8.5 1.1 1 .5 1-.5 0-1.7-.5-2.5-1s-1-1-.5-1c.6 0 1.7.5 2.5 1zm174 0c0 .5-.2 1-.4 1-.3 0-.8-.5-1.1-1-.3-.6-.1-1 .4-1 .6 0 1.1.4 1.1 1zm-8 1c0 .5-.5 1-1.1 1-.5 0-.7-.5-.4-1 .3-.6.8-1 1.1-1 .2 0 .4.4.4 1zm-3.5 1c-.3.5-1 1-1.6 1-.5 0-.9-.5-.9-1 0-.6.7-1 1.6-1 .8 0 1.2.4.9 1zM123 424c.8.5 1.1 1 .5 1-.5 0-1.7-.5-2.5-1s-1-1-.5-1c.6 0 1.7.5 2.5 1zm147 0c0 .5-.7 1-1.6 1-.8 0-1.2-.5-.9-1 .3-.6 1-1 1.6-1 .5 0 .9.4.9 1zm3.5 0c-.3.5-1 1-1.6 1-.5 0-.9-.5-.9-1 0-.6.7-1 1.6-1 .8 0 1.2.4.9 1zm-7.5 1c0 .5-.4 1-1 1-.5 0-1-.5-1-1 0-.6.5-1 1-1 .6 0 1 .4 1 1zm179 .5c0 .8-.7 1.5-1.5 1.5-2.6 0-1.8-2 1.3-2.9.1-.1.2.6.2 1.4zm23.8-.5c.7 0 1 .4.7 1-.8 1.2-6.2 1.3-6.9.1-.9-1.3.7-2.3 2.9-1.7 1.1.3 2.6.6 3.3.6zM262 426c0 .5-.4 1-1 1-.5 0-1-.5-1-1 0-.6.5-1 1-1 .6 0 1 .4 1 1zm177.5 0c.3.5-.1 1-1 1s-1.3-.5-1-1c.3-.6.8-1 1-1 .2 0 .7.4 1 1zm42 0c1.7.7 1.4.9-1.3.9-2 .1-3.1-.3-2.7-.9.7-1.2 1.3-1.2 4 0zM131 427c.8.5 1.1 1 .5 1-.5 0-1.7-.5-2.5-1s-1-1-.5-1c.6 0 1.7.5 2.5 1zm124 .6c0 .8-.4 1.2-1 .9-.5-.3-1-1-1-1.6 0-.5.5-.9 1-.9.6 0 1 .7 1 1.6zm4-1.2c0 .3-.4.8-1 1.1-.5.3-1 .1-1-.4 0-.6.5-1.1 1-1.1.6 0 1 .2 1 .4zm177 .6c0 .5-.5 1-1.1 1-.5 0-.7-.5-.4-1 .3-.6.8-1 1.1-1 .2 0 .4.4.4 1zm55 .6c0 .2-.9.4-2.1.4-1.1 0-1.8-.4-1.4-1 .5-.8 3.5-.3 3.5.6zm-239 .4c0 .5-.4 1-1 1-.5 0-1-.5-1-1 0-.6.5-1 1-1 .6 0 1 .4 1 1zm245.5 0c.3.5-.3 1-1.4 1-1.2 0-2.1-.5-2.1-1 0-.6.6-1 1.4-1 .8 0 1.8.4 2.1 1zm-67.5 1c0 .5-.5 1-1.1 1-.5 0-.7-.5-.4-1 .3-.6.8-1 1.1-1 .2 0 .4.4.4 1zm72.5 0c-.3.5-1 1-1.6 1-.5 0-.9-.5-.9-1 0-.6.7-1 1.6-1 .8 0 1.2.4.9 1zm4.9 1.1c-.3.5-1 .7-1.5.3-.5-.3-.7-1-.3-1.5.3-.5 1-.7 1.5-.3.5.3.7 1 .3 1.5zM139 430c.8.5 1.1 1 .5 1-.5 0-1.7-.5-2.5-1s-1-1-.5-1c.6 0 1.7.5 2.5 1zm288 0c0 .5-.4 1-1 1-.5 0-1-.5-1-1 0-.6.5-1 1-1 .6 0 1 .4 1 1zm85 0c0 .5-.7 1-1.5 1s-1.5-.5-1.5-1c0-.6.7-1 1.5-1s1.5.4 1.5 1zm57-.6c0 .3-.4.8-1 1.1-.5.3-1 .1-1-.4 0-.6.5-1.1 1-1.1.6 0 1 .2 1 .4zm3.7.2c-.3.3-1.2.4-1.9.1-.8-.3-.5-.6.6-.6 1.1-.1 1.7.2 1.3.5zm-331 1c-.3.3-1.2.4-1.9.1-.8-.3-.5-.6.6-.6 1.1-.1 1.7.2 1.3.5zm274.3.4c0 .5-.7 1-1.5 1s-1.5-.5-1.5-1c0-.6.7-1 1.5-1s1.5.4 1.5 1zm49 0c0 .5-.7 1-1.5 1s-1.5-.5-1.5-1c0-.6.7-1 1.5-1s1.5.4 1.5 1zm-327 1c0 .5-.2 1-.4 1-.3 0-.8-.5-1.1-1-.3-.6-.1-1 .4-1 .6 0 1.1.4 1.1 1zm186-.6c0 .3-.4.8-1 1.1-.5.3-1 .1-1-.4 0-.6.5-1.1 1-1.1.6 0 1 .2 1 .4zm96 .6c0 .5-.4 1-1 1-.5 0-1-.5-1-1 0-.6.5-1 1-1 .6 0 1 .4 1 1zm41-.6c0 .3-.4.8-1 1.1-.5.3-1 .1-1-.4 0-.6.5-1.1 1-1.1.6 0 1 .2 1 .4zm-332 1.5c0 .9-4.1 2.3-4.9 1.6-.3-.4 2.8-2 4.7-2.4.1-.1.2.3.2.8zm294 .1c0 .5-.2 1-.4 1-.3 0-.8-.5-1.1-1-.3-.6-.1-1 .4-1 .6 0 1.1.4 1.1 1zm31 0c0 .5-.7 1-1.6 1-.8 0-1.2-.5-.9-1 .3-.6 1-1 1.6-1 .5 0 .9.4.9 1zm3 0c0 .5-.4 1-1 1-.5 0-1-.5-1-1 0-.6.5-1 1-1 .6 0 1 .4 1 1zm-407 1c.8.5 1.1 1 .5 1-.5 0-1.7-.5-2.5-1s-1-1-.5-1c.6 0 1.7.5 2.5 1zm269 0c0 .5-.5 1-1.1 1-.5 0-.7-.5-.4-1 .3-.6.8-1 1.1-1 .2 0 .4.4.4 1zm113 .6c0 .2-1.2.4-2.6.4-1.4 0-2.3-.4-2-.9.6-.8 4.6-.4 4.6.5zm14-.6c0 .5-.4 1-1 1-.5 0-1-.5-1-1 0-.6.5-1 1-1 .6 0 1 .4 1 1zm4 0c0 .5-.7 1-1.6 1-.8 0-1.2-.5-.9-1 .3-.6 1-1 1.6-1 .5 0 .9.4.9 1zm-15.5 1c.3.5.1 1-.4 1-.6 0-1.1-.5-1.1-1 0-.6.2-1 .4-1 .3 0 .8.4 1.1 1zm8.5 2.3c0 .4-.6.2-1.4-.5-.8-.7-1.2-1.7-.9-2.2.5-.8 2.3 1.2 2.3 2.7zM220 436c0 .5-.4 1-1 1-.5 0-1-.5-1-1 0-.6.5-1 1-1 .6 0 1 .4 1 1zm-62 1c.8.5 1.1 1 .5 1-.5 0-1.7-.5-2.5-1s-1-1-.5-1c.6 0 1.7.5 2.5 1zm59 0c0 .5-.7 1-1.6 1-.8 0-1.2-.5-.9-1 .3-.6 1-1 1.6-1 .5 0 .9.4.9 1zm321.7-.4c-.3.3-1.2.4-1.9.1-.8-.3-.5-.6.6-.6 1.1-.1 1.7.2 1.3.5zM212 437.8c0 .4-1 .9-2.2.9-1.8.2-2 0-.8-.7 1.8-1.2 3-1.3 3-.2zm166.5.2c.3.5-.1 1-.9 1-.9 0-1.6-.5-1.6-1 0-.6.4-1 .9-1 .6 0 1.3.4 1.6 1zm-12.5 1c0 .5-.7 1-1.6 1-.8 0-1.2-.5-.9-1 .3-.6 1-1 1.6-1 .5 0 .9.4.9 1zm5.2.2c-.9.9-1.5.9-2.4 0-.9-.9-.7-1.2 1.2-1.2s2.1.3 1.2 1.2zM166 440c.8.5 1.1 1 .5 1-.5 0-1.7-.5-2.5-1s-1-1-.5-1c.6 0 1.7.5 2.5 1zm195.5 0c-.3.5-1 1-1.6 1-.5 0-.9-.5-.9-1 0-.6.7-1 1.6-1 .8 0 1.2.4.9 1zM204 441.2c0 .6-.3.9-.6.5-.3-.3-1.7-.2-3 .3-2.4 1-3.5-.4-1.1-1.3 2.3-1 4.7-.7 4.7.5zm153-.2c0 .5-.4 1-1 1-.5 0-1-.5-1-1 0-.6.5-1 1-1 .6 0 1 .4 1 1zm61 .6c0 .8-.4 1.2-1 .9-.5-.3-1-1-1-1.6 0-.5.5-.9 1-.9.6 0 1 .7 1 1.6zm-68 .4c0 .5-.4 1-1 1-.5 0-1-.5-1-1 0-.6.5-1 1-1 .6 0 1 .4 1 1zm3-.6c0 .3-.4.8-1 1.1-.5.3-1 .1-1-.4 0-.6.5-1.1 1-1.1.6 0 1 .2 1 .4zm-176.6 2.1c1.9.8 3.9 1.5 4.3 1.4.5-.1 1 0 1.3.1 2 .7 4.6.7 6.2-.1 1.1-.6 1.8-.6 1.8 0 0 1.8-5.5 2.1-11.3.6-3.2-.8-6.3-1.3-6.8-.9-.5.3-.9-.2-.9-1 0-2 .8-2 5.4-.1zM346 443c0 .5-.5 1-1.1 1-.5 0-.7-.5-.4-1 .3-.6.8-1 1.1-1 .2 0 .4.4.4 1zm-153 1c0 .5-.4 1-1 1-.5 0-1-.5-1-1 0-.6.5-1 1-1 .6 0 1 .4 1 1zm150 0c0 .5-.4 1-1 1-.5 0-1-.5-1-1 0-.6.5-1 1-1 .6 0 1 .4 1 1zm38.5 0c.3.5.1 1-.4 1-.6 0-1.1-.5-1.1-1 0-.6.2-1 .4-1 .3 0 .8.4 1.1 1zm-42.5 1c-.8.5-2.2.9-3 .9-1 0-.8-.3.5-.9 2.7-1.2 4.3-1.2 2.5 0zm-164.5 6.8c-.8.8-1.3 0-2-3.3l-.7-3 1.6 2.9c.9 1.6 1.4 3.1 1.1 3.4zM329 448c0 .5-.4 1-1 1-.5 0-1-.5-1-1 0-.6.5-1 1-1 .6 0 1 .4 1 1zm89.9 6.3c-.1 5.9-.2 6-1 2.2-1.1-5.6-1.1-9.7.1-9 .6.3.9 3.4.9 6.8zM322 450c-1.9 1.2-3 1.2-3 .1 0-1 3.1-2 4-1.4.2.2-.2.8-1 1.3zm-6 .9c0 .5-2 1.6-4.5 2.4-2.5.9-4.5 1.2-4.5.8 0-.5 5.5-3.1 8.8-4 .1-.1.2.3.2.8zM176.5 454c.3.5.2 1-.4 1-.5 0-1.3-.5-1.6-1-.3-.6-.2-1 .4-1 .5 0 1.3.4 1.6 1zm129 0c.3.5-.1 1-1 1s-1.3-.5-1-1c.3-.6.8-1 1-1 .2 0 .7.4 1 1zm-3.5.4c0 .3-.4.8-1 1.1-.5.3-1 .1-1-.4 0-.6.5-1.1 1-1.1.6 0 1 .2 1 .4zm-4 1.6c0 .5-.4 1-1 1-.5 0-1-.5-1-1 0-.6.5-1 1-1 .6 0 1 .4 1 1zm84.3.9c.5 2.2-.1 3.3-1.4 2.5-1.2-.7-1.2-4.4 0-4.4.5 0 1.1.9 1.4 1.9zm-87.8.1c-.3.5-1 1-1.6 1-.5 0-.9-.5-.9-1 0-.6.7-1 1.6-1 .8 0 1.2.4.9 1zM179 458c0 .5-.4 1-1 1-.5 0-1-.5-1-1 0-.6.5-1 1-1 .6 0 1 .4 1 1zm109 0c0 .5-.4 1-1 1-.5 0-1-.5-1-1 0-.6.5-1 1-1 .6 0 1 .4 1 1zm3 0c0 .5-.4 1-1 1-.5 0-1-.5-1-1 0-.6.5-1 1-1 .6 0 1 .4 1 1zm-6 1c0 .5-.4 1-1 1-.5 0-1-.5-1-1 0-.6.5-1 1-1 .6 0 1 .4 1 1zm-7 1c0 .5-.5 1-1.1 1-.5 0-.7-.5-.4-1 .3-.6.8-1 1.1-1 .2 0 .4.4.4 1zm-3 1c0 .5-.5 1-1.1 1-.5 0-.7-.5-.4-1 .3-.6.8-1 1.1-1 .2 0 .4.4.4 1zm-3 1c0 .5-.9 1-2.1 1-1.1 0-3 .5-4.1 1.1-1.4.8-1.8.8-1.4 0 .4-.6 2.1-1.5 3.9-2 1.8-.5 3.3-1 3.5-1 .1-.1.2.3.2.9zm-88 1c.8.5 1.1 1.2.7 1.6-.4.4-1.5 0-2.4-.9-1.8-1.8-.8-2.3 1.7-.7zm79 2c0 .5-.4 1-.9 1s-1.8.3-2.8.6c-1.6.6-1.6.5.2-.9 2.3-1.9 3.5-2.1 3.5-.7zm119.1 2.3c-1.3 1.3-2.6.3-1.6-1.2.3-.6 1.1-.8 1.7-.5.6.4.6 1-.1 1.7zm-188.6 4.5c-.6.6-5.5-3-5.5-4 0-.5 1.3.1 2.9 1.4 1.5 1.3 2.7 2.4 2.6 2.6zm62.5-3.3c-.7.9-1.5 1.3-1.7 1.1-.7-.7.7-2.6 1.9-2.6.6 0 .6.6-.2 1.5zm162.7 2.2c-.3 1-.5.4-.5-1.2 0-1.7.2-2.4.5-1.8.2.7.2 2.1 0 3zm-166.6.1c-1.1.4-1.1.6 0 1.4 1.1.7.9.8-.5.4-1-.4-2.5-.1-3.2.5-.8.6-1.4.7-1.4.3 0-1.2 5.3-4.4 6-3.7.3.3-.1.8-.9 1.1zm129.4.1c.3.5.1 1.2-.5 1.6-.5.3-1-.1-1-.9 0-1.8.6-2.1 1.5-.7zM196 474c0 .5-.2 1-.4 1-.3 0-.8-.5-1.1-1-.3-.6-.1-1 .4-1 .6 0 1.1.4 1.1 1zm4.8 2.5c2.1 2.1 2.3 2.4.7 1.8-2.1-.7-4.5-2.7-4.5-3.7 0-1.1 1.1-.6 3.8 1.9zM260 475c.8.5 1.1 1 .5 1-.5 0-1.7-.5-2.5-1s-1-1-.5-1c.6 0 1.7.5 2.5 1zm-17.5 3.6c-2.4 1.9-4.2 2.4-9.2 2.4-3.4 0-6.9.3-7.9.7-1.2.4-1.5.3-1-.5.4-.7 3.4-1.2 7.6-1.2 6.1 0 7.2-.3 9.5-2.6 1.4-1.4 2.9-2.3 3.3-1.9.4.4-.6 1.8-2.3 3.1zm138.5-2.7c0 .6-.4 1.3-1 1.6-.5.3-1-.1-1-.9 0-.9.5-1.6 1-1.6.6 0 1 .4 1 .9zM268 478c.8.5 1.1 1 .5 1-.5 0-1.7-.5-2.5-1s-1-1-.5-1c.6 0 1.7.5 2.5 1zm151.8 4.2l-.1 5.3-.6-4.5c-.6-4.3-.5-6 .5-6 .2 0 .3 2.4.2 5.2zM206 479.8c0 .5 1.2 1.4 2.6 2.1 1.5.6 2.4 1.4 2.1 1.8-.4.3-1.3.1-2-.5-.8-.7-1.6-1-1.8-.7-.3.2-1-.5-1.7-1.5-.7-1.2-.8-2-.2-2 .5 0 1 .4 1 .8zm70 1.2c.8.5 1.1 1 .5 1-.5 0-1.7-.5-2.5-1s-1-1-.5-1c.6 0 1.7.5 2.5 1zm104-.1c0 .6-.4 1.3-1 1.6-.5.3-1-.1-1-.9 0-.9.5-1.6 1-1.6.6 0 1 .4 1 .9zm-96 3.1c.8.5 1.1 1 .5 1-.5 0-1.7-.5-2.5-1s-1-1-.5-1c.6 0 1.7.5 2.5 1zm-66.2 3.1c1 0 1.2.3.5.5-1.5.7-5.3-1.3-5.3-2.7 0-.6.7-.3 1.6.5.8.9 2.3 1.6 3.2 1.7zM379 486c0 .5-.4 1-1 1-.5 0-1-.5-1-1 0-.6.5-1 1-1 .6 0 1 .4 1 1zm-87 1c.8.5 1.1 1 .5 1-.5 0-1.7-.5-2.5-1s-1-1-.5-1c.6 0 1.7.5 2.5 1zm8 3c.8.5 1.1 1 .5 1-.5 0-1.7-.5-2.5-1s-1-1-.5-1c.6 0 1.7.5 2.5 1zm78 .6c0 .8-.5 1.2-1 .9-.6-.4-.8-1.1-.5-1.6.9-1.4 1.5-1.1 1.5.7zm40.2 1.9c-.2 1.4-.6 2.5-.8 2.5-.2 0-.4-1.1-.4-2.5s.4-2.5.9-2.5c.4 0 .6 1.1.3 2.5zm145.8 2c0 .5-.5.3-1-.5s-1-2-1-2.5c0-.6.5-.3 1 .5s1 1.9 1 2.5zm-253-.5c.8.5 1.1 1 .5 1-.5 0-1.7-.5-2.5-1s-1-1-.5-1c.6 0 1.7.5 2.5 1zm67 .8c0 1.3-1.2 2.2-2.2 1.6-1-.6-.1-2.4 1.3-2.4.5 0 .9.4.9.8zm-59 2.2c.8.5 1.1 1 .5 1-.5 0-1.7-.5-2.5-1s-1-1-.5-1c.6 0 1.7.5 2.5 1zm100 1c0 .5-.4 1-1 1-.5 0-1-.5-1-1 0-.6.5-1 1-1 .6 0 1 .4 1 1zm-92 2c.8.5 1.1 1 .5 1-.5 0-1.7-.5-2.5-1s-1-1-.5-1c.6 0 1.7.5 2.5 1zm50 0c0 .5-.4 1-1 1-.5 0-1-.5-1-1 0-.6.5-1 1-1 .6 0 1 .4 1 1zm41.7 3.2c-.3.8-.6.5-.6-.6-.1-1.1.2-1.7.5-1.3.3.3.4 1.2.1 1.9zM335 503c.8.5 1.1 1 .5 1-.5 0-1.7-.5-2.5-1s-1-1-.5-1c.6 0 1.7.5 2.5 1zm233 2.5c0 .5-.5.3-1-.5s-1-2-1-2.5c0-.6.5-.3 1 .5s1 1.9 1 2.5zM376 504c0 .5-.4 1-1 1-.5 0-1-.5-1-1 0-.6.5-1 1-1 .6 0 1 .4 1 1zm-33 2c.8.5 1.1 1 .5 1-.5 0-1.7-.5-2.5-1s-1-1-.5-1c.6 0 1.7.5 2.5 1zm75.6 5.8c-1.1 1-1.5-.4-.8-2.8l.7-2.5.3 2.3c.2 1.3.1 2.6-.2 3zM351 509c.8.5 1.1 1 .5 1-.5 0-1.7-.5-2.5-1s-1-1-.5-1c.6 0 1.7.5 2.5 1zm21.4 3.1c-2.1 4.2-4.4 6.9-5.8 6.9-.6 0-.3-.5.8-1.1 1.5-.9 1.6-1.3.5-2s-1.1-.9.3-.9c.9 0 2-1 2.4-2.3.7-2.4 2.5-5 3-4.4.2.2-.3 1.9-1.2 3.8zM359 512c.8.5 1.1 1 .5 1-.5 0-1.7-.5-2.5-1s-1-1-.5-1c.6 0 1.7.5 2.5 1zm58.6 3.7c-1 1-1.9-.5-1-1.8.6-1.1.8-1.1 1.2 0 .2.7.1 1.5-.2 1.8zm-.6 3.8c0 1.4-.4 2.5-1 2.5-.8 0-.8-2.3-.1-4.8.4-1.2 1.1.3 1.1 2.3zm-52.4 3.1c-3 2.1-4.2 1.7-1.6-.6 1.3-1.1 2.6-1.7 2.9-1.4.3.3-.3 1.2-1.3 2zm210.4 1.9c0 .5-.5.3-1-.5s-1-2-1-2.5c0-.6.5-.3 1 .5s1 1.9 1 2.5zm-215-.2c0 1.3-6 4.1-6.8 3.2-.3-.2.7-.9 2.1-1.4 1.4-.5 2.8-1.5 3.2-2 .8-1.5 1.5-1.4 1.5.2zm56-.3c0 .5-.4 1-1 1-.5 0-1-.5-1-1 0-.6.5-1 1-1 .6 0 1 .4 1 1zm-1.6 4.2c-.8 2.7-1.2 3.3-1.9 2.7-.7-.8.7-4.9 1.7-4.9.5 0 .6 1 .2 2.2zM352 528c0 .5-.2 1-.4 1-.3 0-.8-.5-1.1-1-.3-.6-.1-1 .4-1 .6 0 1.1.4 1.1 1zm-8 1c0 .5-.7 1-1.6 1-.8 0-1.2-.5-.9-1 .3-.6 1-1 1.6-1 .5 0 .9.4.9 1zm4 0c0 .5-.4 1-1 1-.5 0-1-.5-1-1 0-.6.5-1 1-1 .6 0 1 .4 1 1zm-46 1c0 .5-.5 1-1.1 1-.6 0-.9.7-.5 1.5.3.8.1 1.5-.4 1.5-.6 0-1-1.1-1-2.5 0-1.6.6-2.5 1.5-2.5.8 0 1.5.4 1.5 1zm37 0c0 .5-.4 1-1 1-.5 0-1-.5-1-1 0-.6.5-1 1-1 .6 0 1 .4 1 1zm-32 1c0 .5-.4 1-1 1-.5 0-1-.5-1-1 0-.6.5-1 1-1 .6 0 1 .4 1 1zm6 0c0 .5-.7 1-1.6 1-.8 0-1.2-.5-.9-1 .3-.6 1-1 1.6-1 .5 0 .9.4.9 1zm17 0c0 .5-.4 1-1 1-.5 0-1-.5-1-1 0-.6.5-1 1-1 .6 0 1 .4 1 1zm5-.6c0 .3-.4.8-1 1.1-.5.3-1 .1-1-.4 0-.6.5-1.1 1-1.1.6 0 1 .2 1 .4zm-16.5 1.6c.3.5-.1 1-.9 1-.9 0-1.6-.5-1.6-1 0-.6.4-1 .9-1 .6 0 1.3.4 1.6 1zm6.5 0c0 .5-.7 1-1.6 1-.8 0-1.2-.5-.9-1 .3-.6 1-1 1.6-1 .5 0 .9.4.9 1zm89 1c0 .5-.4 1-1 1-.5 0-1-.5-1-1 0-.6.5-1 1-1 .6 0 1 .4 1 1zm165 2.5c0 .5-.5.3-1-.5s-1-2-1-2.5c0-.6.5-.3 1 .5s1 1.9 1 2.5zm-158-.5c.8.5 1.1 1 .5 1-.5 0-1.7-.5-2.5-1s-1-1-.5-1c.6 0 1.7.5 2.5 1zm-110 9.4c4.9 5 9 9.4 9 10 0 .5-4.3-3.3-9.5-8.5-5.2-5.1-9.5-9.8-9.5-10.3s.2-.7.5-.5c.2.2 4.5 4.4 9.5 9.3zm100.5-4.5c-.3 1.2-1 2.1-1.5 2.1-.4 0-.3-1.1.3-2.4 1.4-2.9 2.2-2.7 1.2.3zM429 538c.8.5 1.1 1 .5 1-.5 0-1.7-.5-2.5-1s-1-1-.5-1c.6 0 1.7.5 2.5 1zm8 3c.8.5 1.1 1 .5 1-.5 0-1.7-.5-2.5-1s-1-1-.5-1c.6 0 1.7.5 2.5 1zm8 3c.8.5 1.1 1 .5 1-.5 0-1.7-.5-2.5-1s-1-1-.5-1c.6 0 1.7.5 2.5 1zm-35.5 3c-.3.5-1.1 1-1.6 1-.6 0-.7-.5-.4-1 .3-.6 1.1-1 1.6-1 .6 0 .7.4.4 1zm43.5 0c.8.5 1.1 1 .5 1-.5 0-1.7-.5-2.5-1s-1-1-.5-1c.6 0 1.7.5 2.5 1zm8 3c.8.5 1.1 1 .5 1-.5 0-1.7-.5-2.5-1s-1-1-.5-1c.6 0 1.7.5 2.5 1zm125 4.5c0 .5-.5.3-1-.5s-1-2-1-2.5c0-.6.5-.3 1 .5s1 1.9 1 2.5zm-114-.3c1 .6.7.7-1 .2-1.4-.3-3.2-1.1-4-1.6-1-.6-.7-.7 1-.2 1.4.3 3.2 1.1 4 1.6zm-64.7.8c-.3 1.1-1 2-1.5 2s-.6.4-.3 1c.3.5.1 1-.4 1-1.4 0-1.4-.3.1-3.5 1.3-3 2.8-3.4 2.1-.5zm72.7 2c.8.5 1.1 1 .5 1-.5 0-1.7-.5-2.5-1s-1-1-.5-1c.6 0 1.7.5 2.5 1zm8 3c.8.5 1.1 1 .5 1-.5 0-1.7-.5-2.5-1s-1-1-.5-1c.6 0 1.7.5 2.5 1zm-160.6 1.6c.9 2.4.7 2.8-.9 1.4-1.7-1.4-2-3-.6-3 .5 0 1.2.7 1.5 1.6zm76.9.4c-.3 1-1.1 2.5-1.9 3.1-1.7 1.4-1.8.8-.2-2.6 1.3-3 2.8-3.4 2.1-.5zm91.7 1c.8.5 1.1 1 .5 1-.5 0-1.7-.5-2.5-1s-1-1-.5-1c.6 0 1.7.5 2.5 1zm94 2.5c0 .5-.5.3-1-.5s-1-2-1-2.5c0-.6.5-.3 1 .5s1 1.9 1 2.5zm-86 .5c.8.5 1.1 1 .5 1-.5 0-1.7-.5-2.5-1s-1-1-.5-1c.6 0 1.7.5 2.5 1zm-171.5 1c.3.5-.1 1-.9 1-.9 0-1.6-.5-1.6-1 0-.6.4-1 .9-1 .6 0 1.3.4 1.6 1zm179.5 2c.8.5 1.1 1 .5 1-.5 0-1.7-.5-2.5-1s-1-1-.5-1c.6 0 1.7.5 2.5 1zm-177 2.1c0 .6-.4.7-1 .4-.5-.3-1-1.1-1-1.6 0-.6.5-.7 1-.4.6.3 1 1.1 1 1.6zm64 0c-.7 1.1-1.4 1.9-1.6 1.6-.7-.7.7-3.7 1.7-3.7.6 0 .5.9-.1 2.1zm124 2.1c1 .6.7.7-1 .2-1.4-.3-3.2-1.1-4-1.6-1-.6-.7-.7 1-.2 1.4.3 3.2 1.1 4 1.6zm-185 1.9c0 .6-.4.7-1 .4-.5-.3-1-1.1-1-1.6 0-.6.5-.7 1-.4.6.3 1 1.1 1 1.6zm256 1.4c0 .5-.5.3-1-.5s-1-2-1-2.5c0-.6.5-.3 1 .5s1 1.9 1 2.5zm-198.7-.5c-.9 1.1-1.9 1.7-2.1 1.5-.6-.6 1.8-3.5 2.9-3.5.5 0 .1.9-.8 2zm135.7 0c.8.5 1.1 1 .5 1-.5 0-1.7-.5-2.5-1s-1-1-.5-1c.6 0 1.7.5 2.5 1zm-190 2c0 .5-.2 1-.4 1-.3 0-.8-.5-1.1-1-.3-.6-.1-1 .4-1 .6 0 1.1.4 1.1 1zm198 1c.8.5 1.1 1 .5 1-.5 0-1.7-.5-2.5-1s-1-1-.5-1c.6 0 1.7.5 2.5 1zm-195.6 2.6c.3.8.2 1.2-.4.9-.6-.3-1-1-1-1.6 0-1.4.7-1.1 1.4.7zm47.6-.8c0 .5-1.3 2.1-3 3.7-3.5 3.4-3.9 2.6-.8-1.5 2.1-2.9 3.8-3.9 3.8-2.2zm156 1.2c.8.5 1.1 1 .5 1-.5 0-1.7-.5-2.5-1s-1-1-.5-1c.6 0 1.7.5 2.5 1zm50 2.5c0 .5-.5.3-1-.5s-1-2-1-2.5c0-.6.5-.3 1 .5s1 1.9 1 2.5zm-250.5.5c.3.5.1 1-.4 1-.6 0-1.1-.5-1.1-1 0-.6.2-1 .4-1 .3 0 .8.4 1.1 1zm208.5 0c.8.5 1.1 1 .5 1-.5 0-1.7-.5-2.5-1s-1-1-.5-1c.6 0 1.7.5 2.5 1zm-205.4 4.7c-.7.7-2.6-.7-2.6-1.9 0-.6.6-.6 1.5.2.9.7 1.3 1.5 1.1 1.7zM563 588c.8.5 1.1 1 .5 1-.5 0-1.7-.5-2.5-1s-1-1-.5-1c.6 0 1.7.5 2.5 1zm-180 .9c0 1.2-2 2.5-2.7 1.8-.7-.7.6-2.7 1.8-2.7.5 0 .9.4.9.9zm188 2.1c.8.5 1.1 1 .5 1-.5 0-1.7-.5-2.5-1s-1-1-.5-1c.6 0 1.7.5 2.5 1zm30 4.5c0 .5-.5.3-1-.5s-1-2-1-2.5c0-.6.5-.3 1 .5s1 1.9 1 2.5zm-224-2.1c0 .2-.7.7-1.6 1-.8.3-1.2.2-.9-.4.6-1 2.5-1.4 2.5-.6zm205 1.8c1 .6.7.7-1 .2-1.4-.3-3.2-1.1-4-1.6-1-.6-.7-.7 1-.2 1.4.3 3.2 1.1 4 1.6zm-218.5-.2c.3.6-.1 1.3-1 1.6-1.9.8-3 0-2-1.5.8-1.4 2.2-1.4 3-.1zm-8.5 1c0 .5-.2 1-.4 1-.3 0-.8-.5-1.1-1-.3-.6-.1-1 .4-1 .6 0 1.1.4 1.1 1zm18-.1c0 .5-.7 1.1-1.5 1.5-1.5.5-2-.5-.8-1.7.9-1 2.3-.9 2.3.2zm217 2.1c.8.5 1.1 1 .5 1-.5 0-1.7-.5-2.5-1s-1-1-.5-1c.6 0 1.7.5 2.5 1zm8 3c.8.5 1.1 1 .5 1-.5 0-1.7-.5-2.5-1s-1-1-.5-1c.6 0 1.7.5 2.5 1z"/></svg>